<?xml version="1.0" encoding="utf-8"?>
<!-- Generator: Adobe Illustrator 17.0.0, SVG Export Plug-In . SVG Version: 6.00 Build 0)  -->
<!DOCTYPE svg PUBLIC "-//W3C//DTD SVG 1.1//EN" "http://www.w3.org/Graphics/SVG/1.1/DTD/svg11.dtd">
<svg version="1.1" id="Layer_1" xmlns="http://www.w3.org/2000/svg" xmlns:xlink="http://www.w3.org/1999/xlink" x="0px" y="0px"
	 width="2000px" height="2000px" viewBox="0 0 2000 2000" enable-background="new 0 0 2000 2000" xml:space="preserve">
<path fill="#FF1E00" d="M1459.892,1246.587l0.033,0v42.702c-0.014,94.333-76.485,170.805-170.806,170.806H776.701v-170.806h341.612
	l170.806-170.806H776.701v-85.403h597.821l170.806-170.806H776.701V776.87h854.031l170.806-170.806H776.701V435.257
	c0.001-94.321,76.473-170.793,170.806-170.806h42.702l0,0.033c0-70.75-57.354-128.105-128.105-128.105L435.088,93.645v1708.061
	h1195.643l-42.734-427.015C1587.997,1303.941,1530.642,1246.587,1459.892,1246.587"/>
<g>
	<text transform="matrix(1 0 0 1 201.7959 967.6089)" font-family="'Kenzo'" font-size="170.8061">100</text>
	<text transform="matrix(1 0 0 1 948.9498 1986.7496)" font-family="'Kenzo'" font-size="170.8061">70</text>
	<g>
		<rect x="413.619" y="102.185" width="8.54" height="1690.981"/>
		<rect x="400.808" y="93.645" width="34.161" height="8.54"/>
		<rect x="434.97" y="93.645" width="427.015" height="8.54"/>
		<rect x="400.808" y="1793.166" width="34.161" height="8.54"/>
		<polyline points="443.51,1814.517 443.51,1823.057 1622.072,1823.057 1622.072,1814.517 		"/>
		<rect x="434.97" y="1801.706" width="8.54" height="34.161"/>
		<rect x="1622.072" y="1801.706" width="8.54" height="34.161"/>
		<text transform="matrix(1 0 0 1 606.6864 1630.8882)" font-family="'Kenzo'" font-size="170.8061">20</text>
		<polyline points="443.51,1460.094 443.51,1468.635 776.582,1468.635 776.582,1460.094 		"/>
		<rect x="434.97" y="1447.284" width="8.54" height="34.161"/>
		<text transform="matrix(1 0 0 1 1436.6578 746.9891)" font-family="'Kenzo'" font-size="85.4031">40</text>
		<text transform="matrix(1 0 0 1 1590.0471 694.4819)" font-family="'Kenzo'" font-size="85.4031">45</text>
		<polyline points="785.122,618.874 785.122,627.414 1792.878,627.414 1792.878,618.874 		"/>
		<rect x="776.582" y="606.063" width="8.54" height="34.161"/>
		<rect x="1792.878" y="606.063" width="8.54" height="34.161"/>
		<polyline points="785.122,755.52 785.122,764.06 1622.072,764.06 1622.072,755.52 		"/>
		<rect x="776.582" y="742.708" width="8.54" height="34.161"/>
		<rect x="1622.072" y="742.708" width="8.54" height="34.161"/>
		<text transform="matrix(1 0 0 1 1180.4379 1003.1861)" font-family="'Kenzo'" font-size="85.4031">30</text>
		<text transform="matrix(1 0 0 1 1333.8271 950.7019)" font-family="'Kenzo'" font-size="85.4031">35</text>
		<polyline points="785.122,875.084 785.122,883.625 1536.664,883.625 1536.664,875.084 		"/>
		<rect x="776.582" y="862.273" width="8.54" height="34.161"/>
		<rect x="1536.664" y="862.273" width="8.54" height="34.161"/>
		<polyline points="785.122,1011.73 785.122,1020.271 1365.858,1020.271 1365.858,1011.73 		"/>
		<rect x="776.582" y="998.917" width="8.54" height="34.161"/>
		<rect x="1365.858" y="998.917" width="8.54" height="34.161"/>
		<text transform="matrix(1 0 0 1 924.2325 1259.3915)" font-family="'Kenzo'" font-size="85.4031">20</text>
		<text transform="matrix(1 0 0 1 1077.6301 1206.9072)" font-family="'Kenzo'" font-size="85.4031">25</text>
		<polyline points="785.122,1131.295 785.122,1139.836 1280.46,1139.836 1280.46,1131.295 		"/>
		<polyline points="785.122,1267.94 785.122,1276.481 1109.654,1276.481 1109.654,1267.94 		"/>
		<rect x="776.582" y="1118.482" width="8.54" height="34.161"/>
		<rect x="1280.46" y="1118.482" width="8.54" height="34.161"/>
		<text transform="matrix(1 0 0 1 1027.4524 1548.5138)" font-family="'Kenzo'" font-size="85.4031">25</text>
		<polyline points="785.122,1472.908 785.122,1481.448 1280.46,1481.448 1280.46,1472.908 		"/>
		<rect x="776.582" y="1460.094" width="8.54" height="34.161"/>
		<rect x="1280.46" y="1460.094" width="8.54" height="34.161"/>
		<rect x="776.582" y="1255.127" width="8.54" height="34.161"/>
		<rect x="1109.654" y="1255.127" width="8.54" height="34.161"/>
		<polyline points="768.855,1793.166 776.582,1793.166 776.582,1468.634 768.855,1468.634 		"/>
		<rect x="755.638" y="1793.166" width="34.161" height="8.54"/>
		<polyline points="755.231,1280.748 763.771,1280.748 763.771,1127.022 755.231,1127.022 		"/>
		<rect x="742.421" y="1280.748" width="34.161" height="8.54"/>
		<rect x="742.421" y="1118.482" width="34.161" height="8.54"/>
		<text transform="matrix(1 0 0 1 714.4539 1410.8782)" font-family="'Kenzo'" font-size="85.4031">10</text>
		<text transform="matrix(1 0 0 1 1229.0024 1293.5657)" font-family="'Kenzo'" font-size="85.4031">10</text>
		<text transform="matrix(1 0 0 1 739.196 1106.9868)" font-family="'Kenzo'" font-size="85.4031">5</text>
		<text transform="matrix(1 0 0 1 685.9813 1236.5186)" font-family="'Kenzo'" font-size="85.4031">10</text>
		<text transform="matrix(1 0 0 1 685.9813 978.8726)" font-family="'Kenzo'" font-size="85.4031">10</text>
		<text transform="matrix(1 0 0 1 685.9813 726.2164)" font-family="'Kenzo'" font-size="85.4031">10</text>
		<polyline points="789.392,1451.554 797.933,1451.554 797.933,1297.828 789.392,1297.828 		"/>
		<rect x="776.582" y="1451.554" width="34.161" height="8.54"/>
		<rect x="776.582" y="1289.288" width="34.161" height="8.54"/>
		<polyline points="1438.455,1280.739 1446.996,1280.739 1446.996,1255.118 1438.455,1255.118 		"/>
		<rect x="1425.645" y="1280.748" width="34.161" height="8.54"/>
		<rect x="1425.645" y="1246.586" width="34.161" height="8.54"/>
		<polyline points="789.392,1109.936 797.933,1109.936 797.933,1041.614 789.392,1041.614 		"/>
		<rect x="776.582" y="1109.942" width="34.161" height="8.54"/>
		<rect x="776.582" y="1033.079" width="34.161" height="8.54"/>
		<text transform="matrix(1 0 0 1 739.196 850.7668)" font-family="'Kenzo'" font-size="85.4031">5</text>
		<polyline points="789.392,853.727 797.933,853.727 797.933,785.404 789.392,785.404 		"/>
		<rect x="776.582" y="853.732" width="34.161" height="8.54"/>
		<rect x="776.582" y="776.87" width="34.161" height="8.54"/>
		<polyline points="755.231,1024.538 763.771,1024.538 763.771,870.813 755.231,870.813 		"/>
		<rect x="742.421" y="1024.538" width="34.161" height="8.54"/>
		<rect x="742.421" y="862.273" width="34.161" height="8.54"/>
		<polyline points="755.231,768.329 763.771,768.329 763.771,614.604 755.231,614.604 		"/>
		<rect x="742.421" y="768.329" width="34.161" height="8.54"/>
		<rect x="742.421" y="606.063" width="34.161" height="8.54"/>
		<text transform="matrix(1 0 0 1 720.1409 555.4205)" font-family="'Kenzo'" font-size="85.4031">10</text>
		<text transform="matrix(1 0 0 1 942.0181 494.5598)" font-family="'Kenzo'" font-size="85.4031">10</text>
		<text transform="matrix(1 0 0 1 865.8876 123.7168)" font-family="'Kenzo'" font-size="85.4031">2.5</text>
		<text transform="matrix(1 0 0 1 606.4237 70.8724)" font-family="'Kenzo'" font-size="85.4031">25</text>
		<text transform="matrix(1 0 0 1 950.5796 332.7502)" font-family="'Kenzo'" font-size="42.7015">2.5</text>
		<text transform="matrix(1 0 0 1 1385.7804 1285.0352)" font-family="'Kenzo'" font-size="42.7015">2.5</text>
		<text transform="matrix(1 0 0 1 808.7612 285.8136)" font-family="'Kenzo'" font-size="42.7015">7.5</text>
		<polyline points="789.392,597.523 797.933,597.523 797.933,443.798 789.392,443.798 		"/>
		<polyline points="853.445,136.413 861.985,136.413 861.985,93.711 853.445,93.711 		"/>
		<rect x="776.582" y="597.523" width="34.161" height="8.54"/>
		<rect x="776.582" y="435.257" width="34.161" height="8.54"/>
		<rect x="776.582" y="426.717" width="170.806" height="8.54"/>
		<rect x="955.928" y="277.27" width="25.621" height="8.54"/>
		<rect x="938.848" y="264.451" width="8.54" height="170.806"/>
		<rect x="947.388" y="264.451" width="8.54" height="34.161"/>
		<rect x="981.549" y="264.451" width="8.54" height="34.161"/>
		<path d="M400.808,857.982"/>
		<circle cx="921.767" cy="409.636" r="8.54"/>
		<circle cx="879.065" cy="238.83" r="8.54"/>
		<line x1="904.686" y1="247.37" x2="861.985" y2="247.37"/>
		<rect x="861.985" y="255.884" width="119.564" height="8.54"/>
		<rect x="853.445" y="136.413" width="8.54" height="128.038"/>
		<rect x="1289" y="1289.288" width="170.806" height="8.54"/>
		<rect x="1289" y="1289.288" width="8.54" height="170.806"/>
		<circle cx="1314.621" cy="1314.909" r="8.54"/>
		<path d="M981.549,264.487c0-70.75-48.814-119.564-119.564-119.564v-8.547c70.75,0,128.105,57.354,128.105,128.105"/>
		<rect x="1622.135" y="1374.691" width="8.54" height="427.015"/>
		<polyline points="1587.908,1383.231 1587.908,1374.691 1630.609,1374.691 1630.609,1383.231 		"/>
		<circle cx="1485.49" cy="1357.611" r="8.54"/>
		<rect x="1459.896" y="1255.127" width="8.54" height="119.564"/>
		<rect x="1459.87" y="1374.691" width="128.038" height="8.54"/>
		<path d="M1459.833,1255.127c70.75,0,119.564,48.814,119.564,119.564h8.547c0-70.75-57.354-128.105-128.104-128.105"/>
		<text transform="matrix(1 0 0 1 1604.9513 1366.1605)" font-family="'Kenzo'" font-size="85.4031">2.5</text>
		<text transform="matrix(1 0 0 1 1644.3882 1624.5038)" font-family="'Kenzo'" font-size="85.4031">25</text>
		<text transform="matrix(1 0 0 1 1433.6051 1422.0316)" font-family="'Kenzo'" font-size="42.7015">7.5</text>
	</g>
</g>
</svg>
