<?xml version="1.0" encoding="utf-8"?>
<!-- Generator: Adobe Illustrator 17.0.0, SVG Export Plug-In . SVG Version: 6.00 Build 0)  -->
<!DOCTYPE svg PUBLIC "-//W3C//DTD SVG 1.1//EN" "http://www.w3.org/Graphics/SVG/1.1/DTD/svg11.dtd">
<svg version="1.1" id="Layer_1" xmlns="http://www.w3.org/2000/svg" xmlns:xlink="http://www.w3.org/1999/xlink" x="0px" y="0px"
	 width="2000px" height="2000px" viewBox="0 0 2000 2000" enable-background="new 0 0 2000 2000" xml:space="preserve">
<path fill="#FF1E00" d="M396.613,1068.036l0.01,0v13.266c-0.004,29.306-23.761,53.063-53.064,53.064H184.368v-53.064h106.128
	l53.064-53.064H184.368v-26.532h185.723l53.064-53.064H184.368v-26.532h265.319l53.064-53.064H184.368v-53.064
	c0-29.302,23.758-53.06,53.064-53.064h13.266l0,0.01c0-21.98-17.818-39.798-39.798-39.798L78.241,709.856v530.638h371.446
	l-13.276-132.659C436.411,1085.854,418.593,1068.036,396.613,1068.036"/>
<polyline fill="#FF1E00" points="555.815,656.792 555.815,1293.557 582.346,1293.557 582.346,656.792 "/>
<g>
	<path d="M796.969,1194.331v46.162H635.41V869.047h58.372v325.284H796.969z"/>
	<path d="M889.477,915.753v115.664h96.106v46.706h-96.106v116.208h129.12v46.162H831.105V869.047h187.492v46.706H889.477z"/>
	<path d="M1043.322,1192.725c-12.377-22.796-12.981-42.976-12.981-45.1v-185.71c0-2.124,0.604-22.304,12.981-45.1
		c17.097-30.801,50.687-47.768,93.746-47.768c43.031,0,76.649,16.968,93.746,47.768c12.377,22.796,12.952,42.976,12.952,45.1v23.34
		h-58.947v-23.34c0-8.497-5.901-46.162-47.751-46.162c-41.879,0-48.355,38.183-48.355,46.162v185.71
		c0,7.979,6.476,46.706,48.355,46.706c41.85,0,47.751-38.209,47.751-46.706v-69.502h-38.339v-46.706h97.286v116.208
		c0,2.124-0.576,22.304-12.952,45.1c-17.097,30.801-50.715,47.768-93.746,47.768
		C1094.008,1240.494,1060.419,1223.526,1043.322,1192.725z"/>
	<path d="M1425.328,1124.285h-86.061l-27.718,116.208h-59.552l88.45-371.446h83.701l88.45,371.446h-59.552L1425.328,1124.285z
		 M1414.132,1078.123l-31.834-133.201c-11.197,45.1-21.213,88.102-31.834,133.201H1414.132z"/>
	<path d="M1559.716,1192.725c-12.377-22.796-12.981-42.976-12.981-45.1v-185.71c0-2.124,0.604-22.304,12.981-45.1
		c17.097-30.801,50.687-47.768,93.746-47.768c43.03,0,76.649,16.968,93.746,47.768c12.377,22.796,12.952,42.976,12.952,45.1v23.34
		h-58.947v-23.34c0-8.497-5.901-46.162-47.751-46.162c-41.879,0-48.355,38.183-48.355,46.162v185.71
		c0,7.979,6.476,46.706,48.355,46.706c41.85,0,47.751-38.209,47.751-46.706v-23.34h58.947v23.34c0,2.124-0.576,22.304-12.952,45.1
		c-17.097,30.801-50.715,47.768-93.746,47.768C1610.402,1240.494,1576.813,1223.526,1559.716,1192.725z"/>
	<path d="M1993.013,869.047l-87.241,190.503v180.944h-58.372V1059.55l-87.27-190.503h63.092l53.047,116.726
		c17.701-39.245,35.979-77.455,53.68-116.726H1993.013z"/>
</g>
<text transform="matrix(1 0 0 1 5.7993 981.3638)" font-family="'Kenzo'" font-size="53.0637">100</text>
<text transform="matrix(1 0 0 1 240.125 1285.5908)" font-family="'Kenzo'" font-size="53.0637">70</text>
<rect x="71.608" y="712.508" width="2.653" height="525.331"/>
<rect x="67.628" y="709.855" width="10.613" height="2.653"/>
<rect x="78.241" y="709.855" width="132.659" height="2.653"/>
<rect x="67.628" y="1237.839" width="10.613" height="2.653"/>
<polyline points="80.894,1244.472 80.894,1247.125 447.034,1247.125 447.034,1244.472 "/>
<rect x="78.241" y="1240.492" width="2.653" height="10.613"/>
<rect x="447.034" y="1240.492" width="2.653" height="10.613"/>
<text transform="matrix(1 0 0 1 131.582 1187.4277)" font-family="'Kenzo'" font-size="53.0637">20</text>
<text transform="matrix(1 0 0 1 511.9082 869.0405)" font-family="'Kenzo'" font-size="53.0637">10</text>
<text transform="matrix(1 0 0 1 594.1538 702.7764)" font-family="'Kenzo'" font-size="53.0637">10</text>
<text transform="matrix(1 0 0 1 594.1548 1285.5908)" font-family="'Kenzo'" font-size="53.0637">10</text>
<polyline points="80.894,1134.365 80.894,1137.018 184.368,1137.018 184.368,1134.365 "/>
<rect x="78.241" y="1130.385" width="2.653" height="10.613"/>
<text transform="matrix(1 0 0 1 389.4287 912.8208)" font-family="'Kenzo'" font-size="26.5319">40</text>
<text transform="matrix(1 0 0 1 437.0825 896.5151)" font-family="'Kenzo'" font-size="26.5319">45</text>
<polyline points="187.021,873.026 187.021,875.679 500.098,875.679 500.098,873.026 "/>
<polyline points="505.405,873.028 505.405,875.681 553.163,875.681 553.163,873.028 "/>
<rect x="184.368" y="869.046" width="2.653" height="10.613"/>
<rect x="500.098" y="869.046" width="2.653" height="10.613"/>
<rect x="502.751" y="869.046" width="2.653" height="10.613"/>
<rect x="553.161" y="869.046" width="2.653" height="10.613"/>
<text transform="matrix(1 0 0 1 482.7979 1285.5908)" font-family="'Kenzo'" font-size="53.0637">20</text>
<polyline points="452.339,1244.474 452.339,1247.127 553.159,1247.127 553.159,1244.474 "/>
<rect x="449.687" y="1240.494" width="2.653" height="10.613"/>
<rect x="553.161" y="1240.494" width="2.653" height="10.613"/>
<text transform="matrix(1 0 0 1 591.4985 869.0405)" font-family="'Kenzo'" font-size="53.0637">10</text>
<polyline points="585.001,873.028 585.001,875.681 632.759,875.681 632.759,873.028 "/>
<rect x="582.346" y="869.046" width="2.653" height="10.613"/>
<rect x="632.757" y="869.046" width="2.653" height="10.613"/>
<text transform="matrix(1 0 0 1 559.1025 646.1763)" font-family="'Kenzo'" font-size="53.0637">5</text>
<polyline points="558.47,650.162 558.47,652.815 579.694,652.815 579.694,650.162 "/>
<rect x="555.815" y="646.179" width="2.653" height="10.613"/>
<rect x="579.693" y="646.179" width="2.653" height="10.613"/>
<polyline points="187.021,915.477 187.021,918.13 447.034,918.13 447.034,915.477 "/>
<rect x="184.368" y="911.497" width="2.653" height="10.613"/>
<rect x="447.034" y="911.497" width="2.653" height="10.613"/>
<text transform="matrix(1 0 0 1 309.8354 992.4165)" font-family="'Kenzo'" font-size="26.5319">30</text>
<text transform="matrix(1 0 0 1 357.4863 976.1118)" font-family="'Kenzo'" font-size="26.5319">35</text>
<polyline points="187.021,952.622 187.021,955.275 420.5,955.275 420.5,952.622 "/>
<rect x="184.368" y="948.642" width="2.653" height="10.613"/>
<rect x="420.5" y="948.642" width="2.653" height="10.613"/>
<polyline points="187.021,995.073 187.021,997.727 367.437,997.727 367.437,995.073 "/>
<rect x="184.368" y="991.093" width="2.653" height="10.613"/>
<rect x="367.437" y="991.093" width="2.653" height="10.613"/>
<text transform="matrix(1 0 0 1 230.2378 1072.0146)" font-family="'Kenzo'" font-size="26.5319">20</text>
<text transform="matrix(1 0 0 1 277.8877 1055.709)" font-family="'Kenzo'" font-size="26.5319">25</text>
<polyline points="187.021,1032.218 187.021,1034.871 340.906,1034.871 340.906,1032.218 "/>
<polyline points="187.021,1074.669 187.021,1077.322 287.843,1077.322 287.843,1074.669 "/>
<rect x="184.368" y="1028.237" width="2.653" height="10.613"/>
<rect x="340.906" y="1028.237" width="2.653" height="10.613"/>
<text transform="matrix(1 0 0 1 262.3013 1161.8311)" font-family="'Kenzo'" font-size="26.5319">25</text>
<polyline points="187.021,1138.346 187.021,1140.999 340.906,1140.999 340.906,1138.346 "/>
<rect x="184.368" y="1134.365" width="2.653" height="10.613"/>
<rect x="340.906" y="1134.365" width="2.653" height="10.613"/>
<rect x="184.368" y="1070.688" width="2.653" height="10.613"/>
<rect x="287.842" y="1070.688" width="2.653" height="10.613"/>
<polyline points="181.968,1237.839 184.368,1237.839 184.368,1137.018 181.968,1137.018 "/>
<rect x="177.862" y="1237.839" width="10.613" height="2.653"/>
<polyline points="177.735,1078.648 180.388,1078.648 180.388,1030.891 177.735,1030.891 "/>
<rect x="173.755" y="1078.648" width="10.613" height="2.653"/>
<rect x="173.755" y="1028.237" width="10.613" height="2.653"/>
<text transform="matrix(1 0 0 1 165.062 1119.0713)" font-family="'Kenzo'" font-size="26.5319">10</text>
<text transform="matrix(1 0 0 1 324.9155 1082.627)" font-family="'Kenzo'" font-size="26.5319">10</text>
<text transform="matrix(1 0 0 1 172.7475 1024.6631)" font-family="'Kenzo'" font-size="26.5319">5</text>
<text transform="matrix(1 0 0 1 156.2187 1064.9023)" font-family="'Kenzo'" font-size="26.5319">10</text>
<text transform="matrix(1 0 0 1 156.2187 984.8647)" font-family="'Kenzo'" font-size="26.5319">10</text>
<text transform="matrix(1 0 0 1 156.2187 906.3745)" font-family="'Kenzo'" font-size="26.5319">10</text>
<polyline points="188.348,1131.712 191.001,1131.712 191.001,1083.954 188.348,1083.954 "/>
<rect x="184.368" y="1131.712" width="10.613" height="2.653"/>
<rect x="184.368" y="1081.301" width="10.613" height="2.653"/>
<polyline points="389.99,1078.645 392.643,1078.645 392.643,1070.686 389.99,1070.686 "/>
<rect x="386.01" y="1078.648" width="10.613" height="2.653"/>
<rect x="386.01" y="1068.035" width="10.613" height="2.653"/>
<polyline points="188.348,1025.583 191.001,1025.583 191.001,1004.357 188.348,1004.357 "/>
<rect x="184.368" y="1025.584" width="10.613" height="2.653"/>
<rect x="184.368" y="1001.706" width="10.613" height="2.653"/>
<text transform="matrix(1 0 0 1 172.7475 945.0669)" font-family="'Kenzo'" font-size="26.5319">5</text>
<polyline points="188.348,945.987 191.001,945.987 191.001,924.761 188.348,924.761 "/>
<rect x="184.368" y="945.989" width="10.613" height="2.653"/>
<rect x="184.368" y="922.11" width="10.613" height="2.653"/>
<polyline points="177.735,999.052 180.388,999.052 180.388,951.295 177.735,951.295 "/>
<rect x="173.755" y="999.052" width="10.613" height="2.653"/>
<rect x="173.755" y="948.642" width="10.613" height="2.653"/>
<polyline points="177.735,919.457 180.388,919.457 180.388,871.699 177.735,871.699 "/>
<rect x="173.755" y="919.457" width="10.613" height="2.653"/>
<rect x="173.755" y="869.046" width="10.613" height="2.653"/>
<text transform="matrix(1 0 0 1 166.8281 853.311)" font-family="'Kenzo'" font-size="26.5319">10</text>
<text transform="matrix(1 0 0 1 235.7632 834.4043)" font-family="'Kenzo'" font-size="26.5319">10</text>
<text transform="matrix(1 0 0 1 212.1055 719.1909)" font-family="'Kenzo'" font-size="26.5319">2.5</text>
<text transform="matrix(1 0 0 1 131.4956 702.7778)" font-family="'Kenzo'" font-size="26.5319">25</text>
<text transform="matrix(1 0 0 1 238.4228 784.1372)" font-family="'Kenzo'" font-size="13.2659">2.5</text>
<text transform="matrix(1 0 0 1 373.6245 1079.9736)" font-family="'Kenzo'" font-size="13.2659">2.5</text>
<text transform="matrix(1 0 0 1 194.3618 769.5498)" font-family="'Kenzo'" font-size="13.2659">7.5</text>
<polyline points="188.348,866.393 191.001,866.393 191.001,818.636 188.348,818.636 "/>
<polyline points="208.247,723.141 210.9,723.141 210.9,709.876 208.247,709.876 "/>
<rect x="184.368" y="866.393" width="10.613" height="2.653"/>
<rect x="184.368" y="815.982" width="10.613" height="2.653"/>
<rect x="184.368" y="813.329" width="53.064" height="2.653"/>
<rect x="240.085" y="766.901" width="7.96" height="2.653"/>
<rect x="234.779" y="762.919" width="2.653" height="53.064"/>
<rect x="237.432" y="762.919" width="2.653" height="10.613"/>
<rect x="248.045" y="762.919" width="2.653" height="10.613"/>
<path d="M67.628,947.309"/>
<text transform="matrix(1 0 0 1 778.6528 1015.4141)" font-family="'Kenzo'" font-size="53.0637">70</text>
<rect x="824.472" y="871.7" width="2.653" height="366.14"/>
<rect x="820.492" y="869.047" width="10.613" height="2.653"/>
<rect x="820.492" y="1237.84" width="10.613" height="2.653"/>
<path d="M820.492,947.31"/>
<text transform="matrix(1 0 0 1 594.3564 769.5566)" font-family="'Kenzo'" font-size="53.0637">100</text>
<rect x="586.326" y="659.445" width="2.653" height="631.459"/>
<rect x="582.346" y="710.076" width="10.613" height="2.653"/>
<rect x="582.346" y="707.423" width="10.613" height="2.653"/>
<rect x="582.346" y="656.792" width="10.613" height="2.653"/>
<rect x="582.346" y="1237.84" width="10.613" height="2.653"/>
<rect x="582.346" y="1240.494" width="10.613" height="2.653"/>
<rect x="582.346" y="1290.904" width="10.613" height="2.653"/>
<path d="M581.011,947.309"/>
<circle cx="229.472" cy="808.023" r="2.653"/>
<circle cx="216.206" cy="754.959" r="2.653"/>
<path d="M210.9,757.612"/>
<rect x="210.9" y="760.257" width="37.145" height="2.653"/>
<polyline points="210.9,723.141 208.247,723.141 208.247,762.919 210.9,762.919 "/>
<rect x="343.559" y="1081.301" width="53.064" height="2.653"/>
<rect x="343.559" y="1081.301" width="2.653" height="53.064"/>
<circle cx="351.519" cy="1089.261" r="2.653"/>
<path d="M248.045,762.93c0-21.98-15.165-37.145-37.145-37.145v-2.655c21.98,0,39.798,17.818,39.798,39.798"/>
<rect x="447.053" y="1107.833" width="2.653" height="132.659"/>
<polyline points="436.42,1110.486 436.42,1107.833 449.686,1107.833 449.686,1110.486 "/>
<circle cx="404.602" cy="1102.527" r="2.653"/>
<rect x="396.651" y="1070.688" width="2.653" height="37.145"/>
<rect x="396.643" y="1107.833" width="39.777" height="2.653"/>
<path d="M396.632,1070.688c21.98,0,37.145,15.165,37.145,37.145h2.655c0-21.98-17.818-39.798-39.798-39.798"/>
<text transform="matrix(1 0 0 1 441.7134 1105.1826)" font-family="'Kenzo'" font-size="26.5319">2.5</text>
<text transform="matrix(1 0 0 1 453.9668 1185.4375)" font-family="'Kenzo'" font-size="26.5319">25</text>
<text transform="matrix(1 0 0 1 388.481 1122.5361)" font-family="'Kenzo'" font-size="13.2659">7.5</text>
</svg>
