<?xml version="1.0" encoding="utf-8"?>
<!-- Generator: Adobe Illustrator 17.0.0, SVG Export Plug-In . SVG Version: 6.00 Build 0)  -->
<!DOCTYPE svg PUBLIC "-//W3C//DTD SVG 1.1//EN" "http://www.w3.org/Graphics/SVG/1.1/DTD/svg11.dtd">
<svg version="1.1" id="Layer_1" xmlns="http://www.w3.org/2000/svg" xmlns:xlink="http://www.w3.org/1999/xlink" x="0px" y="0px"
	 width="2000px" height="2000px" viewBox="0 0 2000 2000" enable-background="new 0 0 2000 2000" xml:space="preserve">
<path fill="#FF1E00" d="M1187.306,912.196l0.025,0v31.991c-0.01,70.672-57.301,127.963-127.964,127.964H675.474V944.186h255.928
	l127.964-127.964H675.474V752.24h447.875l127.964-127.964H675.474v-63.982h639.821l127.964-127.964H675.474V304.366
	c0.001-70.663,57.292-127.954,127.964-127.964h31.991l0,0.025c0-53.005-42.969-95.973-95.973-95.973l-319.91-32.016v1279.642
	h895.749l-32.016-319.91C1283.279,955.164,1240.311,912.196,1187.306,912.196"/>
<g>
	<path d="M443.862,1762.648v43.511H291.582v-350.116h55.02v306.604H443.862z"/>
	<path d="M531.058,1500.067v109.022h90.587v44.024h-90.587v109.535h121.705v43.511H476.039v-350.116h176.725v44.024H531.058z"/>
	<path d="M676.068,1761.134c-11.666-21.487-12.236-40.508-12.236-42.51v-175.046c0-2.002,0.57-21.023,12.236-42.51
		c16.115-29.032,47.776-45.025,88.362-45.025c40.559,0,72.247,15.993,88.362,45.025c11.666,21.487,12.208,40.508,12.208,42.51v22
		H809.44v-22c0-8.009-5.562-43.511-45.009-43.511c-39.474,0-45.578,35.991-45.578,43.511v175.046c0,7.52,6.104,44.024,45.578,44.024
		c39.447,0,45.009-36.015,45.009-44.024v-65.511h-36.137v-44.024h91.699v109.535c0,2.002-0.543,21.023-12.208,42.51
		c-16.115,29.032-47.803,45.025-88.362,45.025C723.844,1806.159,692.184,1790.166,676.068,1761.134z"/>
	<path d="M1036.138,1696.624h-81.119l-26.126,109.535h-56.132l83.371-350.116h78.894l83.371,350.116h-56.132L1036.138,1696.624z
		 M1025.584,1653.113l-30.006-125.552c-10.554,42.51-19.995,83.042-30.006,125.552H1025.584z"/>
	<path d="M1162.808,1761.134c-11.666-21.487-12.236-40.508-12.236-42.51v-175.046c0-2.002,0.57-21.023,12.236-42.51
		c16.115-29.032,47.776-45.025,88.362-45.025c40.559,0,72.247,15.993,88.363,45.025c11.666,21.487,12.208,40.508,12.208,42.51v22
		h-55.562v-22c0-8.009-5.562-43.511-45.009-43.511c-39.474,0-45.578,35.991-45.578,43.511v175.046
		c0,7.52,6.104,44.024,45.578,44.024c39.447,0,45.009-36.015,45.009-44.024v-22h55.562v22c0,2.002-0.543,21.023-12.208,42.51
		c-16.115,29.032-47.803,45.025-88.363,45.025C1210.584,1806.159,1178.923,1790.166,1162.808,1761.134z"/>
	<path d="M1571.224,1456.043l-82.231,179.563v170.553h-55.02v-170.553l-82.258-179.563h59.469l50.001,110.023
		c16.685-36.992,33.913-73.007,50.598-110.023H1571.224z"/>
</g>
<text transform="matrix(1 0 0 1 425.54 737.5782)" font-family="'Kenzo'" font-size="127.9642">100</text>
<polyline points="275.586,1900.654 275.586,1162.26 291.581,1162.26 291.581,1900.654 "/>
<polyline points="1571.224,1900.828 1571.224,283.235 1587.219,283.235 1587.219,1900.828 "/>
<text transform="matrix(1 0 0 1 296.4429 1276.3994)" font-family="'Kenzo'" font-size="127.9642">10</text>
<polyline points="291.582,1328.079 291.582,1296.088 419.546,1296.088 419.546,1328.079 "/>
<polyline points="291.576,1806.159 291.576,1790.163 1571.234,1790.163 1571.234,1806.159 "/>
<text transform="matrix(1 0 0 1 1465.3496 409.2296)" font-family="'Kenzo'" font-size="127.9642">10</text>
<text transform="matrix(1 0 0 1 610.8564 1435.5948)" font-family="'Kenzo'" font-size="127.9642">10</text>
<text transform="matrix(1 0 0 1 883.2922 1916.9165)" font-family="'Kenzo'" font-size="127.9642">90</text>
<polyline points="1443.259,463.542 1443.259,431.551 1571.224,431.551 1571.224,463.542 "/>
<polyline points="578.271,1455.608 578.271,48.437 610.263,48.437 610.263,1455.608 "/>
</svg>
