<?xml version="1.0" encoding="utf-8"?>
<!-- Generator: Adobe Illustrator 17.0.0, SVG Export Plug-In . SVG Version: 6.00 Build 0)  -->
<!DOCTYPE svg PUBLIC "-//W3C//DTD SVG 1.1//EN" "http://www.w3.org/Graphics/SVG/1.1/DTD/svg11.dtd">
<svg version="1.1" id="Layer_1" xmlns="http://www.w3.org/2000/svg" xmlns:xlink="http://www.w3.org/1999/xlink" x="0px" y="0px"
	 width="2000px" height="2000px" viewBox="0 0 2000 2000" enable-background="new 0 0 2000 2000" xml:space="preserve">
<path fill="#FF1E00" d="M384.829,1112.468l0.01,0v12.782c-0.004,28.238-22.896,51.13-51.13,51.13h-153.39v-51.13h102.26l51.13-51.13
	h-153.39v-25.565h178.955l51.13-51.13H180.318v-25.565h255.65l51.13-51.13h-306.78v-51.13c0-28.234,22.892-51.126,51.13-51.13
	h12.783l0,0.01c0-21.179-17.169-38.348-38.348-38.348L78.058,767.34v511.3h357.91l-12.792-127.825
	C423.176,1129.637,406.007,1112.468,384.829,1112.468"/>
<polyline fill="#FF1E00" points="538.229,716.21 538.229,1329.771 563.794,1329.771 563.794,716.21 "/>
<g>
	<path d="M770.595,1234.161v44.48H614.924v-357.91h56.245v313.431H770.595z"/>
	<path d="M859.732,965.735v111.449h92.604v45.004h-92.604v111.973h124.415v44.48H803.487v-357.91h180.659v45.004H859.732z"/>
	<path d="M1007.97,1232.614c-11.926-21.965-12.508-41.41-12.508-43.456v-178.943c0-2.047,0.582-21.491,12.508-43.456
		c16.474-29.678,48.84-46.027,90.33-46.027c41.462,0,73.856,16.349,90.33,46.027c11.926,21.965,12.48,41.41,12.48,43.456v22.49
		h-56.799v-22.49c0-8.187-5.686-44.48-46.011-44.48c-40.353,0-46.593,36.792-46.593,44.48v178.943
		c0,7.688,6.24,45.004,46.593,45.004c40.325,0,46.011-36.817,46.011-45.004v-66.969h-36.942v-45.004h93.741v111.973
		c0,2.047-0.555,21.491-12.48,43.456c-16.474,29.678-48.867,46.027-90.33,46.027
		C1056.81,1278.641,1024.444,1262.292,1007.97,1232.614z"/>
	<path d="M1376.056,1166.668h-82.925l-26.708,111.973h-57.382l85.227-357.91h80.651l85.227,357.91h-57.382L1376.056,1166.668z
		 M1365.268,1122.188l-30.674-128.347c-10.789,43.456-20.44,84.891-30.674,128.347H1365.268z"/>
	<path d="M1505.547,1232.614c-11.926-21.965-12.508-41.41-12.508-43.456v-178.943c0-2.047,0.582-21.491,12.508-43.456
		c16.474-29.678,48.84-46.027,90.33-46.027c41.462,0,73.856,16.349,90.33,46.027c11.926,21.965,12.48,41.41,12.48,43.456v22.49
		h-56.799v-22.49c0-8.187-5.685-44.48-46.011-44.48c-40.353,0-46.593,36.792-46.593,44.48v178.943
		c0,7.688,6.24,45.004,46.593,45.004c40.325,0,46.011-36.817,46.011-45.004v-22.49h56.799v22.49c0,2.047-0.555,21.491-12.48,43.456
		c-16.474,29.678-48.867,46.027-90.33,46.027C1554.386,1278.641,1522.021,1262.292,1505.547,1232.614z"/>
	<path d="M1923.054,920.731l-84.062,183.56v174.35h-56.245v-174.35l-84.09-183.56h60.793l51.114,112.473
		c17.056-37.815,34.667-74.632,51.724-112.473H1923.054z"/>
</g>
<polyline points="243.432,1125.251 243.432,1176.381 256.215,1176.381 256.215,1125.251 "/>
<text transform="matrix(1 0 0 1 258.9991 1169.1906)" font-family="'Kenzo'" font-size="51.1301">10</text>
<polyline points="563.794,1278.641 563.794,1329.771 576.576,1329.771 576.576,1278.641 "/>
<text transform="matrix(1 0 0 1 578.3945 1322.4142)" font-family="'Kenzo'" font-size="51.1301">10</text>
<text transform="matrix(1 0 0 1 576.4688 759.3546)" font-family="'Kenzo'" font-size="51.1301">10</text>
<text transform="matrix(1 0 0 1 490.9507 913.1251)" font-family="'Kenzo'" font-size="51.1301">10</text>
<polyline points="563.794,767.34 563.794,716.21 576.576,716.21 576.576,767.34 "/>
<text transform="matrix(1 0 0 1 5.8706 1046.9532)" font-family="'Kenzo'" font-size="51.1301">100</text>
<text transform="matrix(1 0 0 1 1948.3173 1099.6866)" font-family="'Kenzo'" font-size="51.1301">70</text>
<polyline points="65.281,1278.641 65.281,767.34 78.063,767.34 78.063,1278.641 "/>
<polyline points="1923.054,1278.641 1923.054,920.73 1935.837,920.73 1935.837,1278.641 "/>
<text transform="matrix(1 0 0 1 462.1831 1046.9542)" font-family="'Kenzo'" font-size="51.1301">100</text>
<polyline points="487.099,933.513 487.099,920.731 538.229,920.731 538.229,933.513 "/>
<text transform="matrix(1 0 0 1 567.6572 913.1251)" font-family="'Kenzo'" font-size="51.1301">10</text>
<text transform="matrix(1 0 0 1 541.3931 690.2296)" font-family="'Kenzo'" font-size="51.1301">5</text>
<polyline points="563.794,933.513 563.794,920.731 614.924,920.731 614.924,933.513 "/>
<polyline points="614.924,1278.891 614.924,1266.108 1923.054,1266.109 1923.054,1278.891 "/>
<polyline points="538.229,716.212 538.229,703.43 563.794,703.43 563.794,716.212 "/>
</svg>
