<?xml version="1.0" encoding="utf-8"?>
<!-- Generator: Adobe Illustrator 17.0.0, SVG Export Plug-In . SVG Version: 6.00 Build 0)  -->
<!DOCTYPE svg PUBLIC "-//W3C//DTD SVG 1.1//EN" "http://www.w3.org/Graphics/SVG/1.1/DTD/svg11.dtd">
<svg version="1.1" id="Layer_1" xmlns="http://www.w3.org/2000/svg" xmlns:xlink="http://www.w3.org/1999/xlink" x="0px" y="0px"
	 width="2000px" height="2000px" viewBox="0 0 2000 2000" enable-background="new 0 0 2000 2000" xml:space="preserve">
<g>
	<path d="M480.129,1807.014v43.998H326.144v-354.033h55.635v310.035H480.129z"/>
	<path d="M568.301,1541.495v110.242h91.601v44.516h-91.601v110.76h123.067v43.998H512.665v-354.033h178.702v44.517H568.301z"/>
	<path d="M714.933,1805.483c-11.796-21.727-12.373-40.961-12.373-42.986v-177.004c0-2.025,0.576-21.258,12.373-42.986
		c16.296-29.357,48.311-45.529,89.351-45.529c41.013,0,73.056,16.172,89.351,45.529c11.796,21.727,12.345,40.961,12.345,42.986
		v22.246h-56.184v-22.246c0-8.098-5.624-43.998-45.512-43.998c-39.916,0-46.088,36.393-46.088,43.998v177.004
		c0,7.605,6.173,44.516,46.088,44.516c39.888,0,45.512-36.418,45.512-44.516v-66.244h-36.542v-44.516h92.726v110.76
		c0,2.025-0.549,21.258-12.345,42.986c-16.296,29.357-48.338,45.529-89.351,45.529
		C763.244,1851.012,731.229,1834.84,714.933,1805.483z"/>
	<path d="M1079.032,1740.251h-82.026l-26.419,110.76h-56.76l84.303-354.033h79.777l84.303,354.033h-56.76L1079.032,1740.251z
		 M1068.36,1696.253l-30.342-126.957c-10.672,42.986-20.219,83.971-30.342,126.957H1068.36z"/>
	<path d="M1207.119,1805.483c-11.796-21.727-12.373-40.961-12.373-42.986v-177.004c0-2.025,0.576-21.258,12.373-42.986
		c16.296-29.357,48.311-45.529,89.351-45.529c41.013,0,73.056,16.172,89.351,45.529c11.796,21.727,12.345,40.961,12.345,42.986
		v22.246h-56.184v-22.246c0-8.098-5.624-43.998-45.512-43.998c-39.916,0-46.089,36.393-46.089,43.998v177.004
		c0,7.605,6.173,44.516,46.089,44.516c39.888,0,45.512-36.418,45.512-44.516v-22.246h56.184v22.246
		c0,2.025-0.549,21.258-12.345,42.986c-16.296,29.357-48.338,45.529-89.351,45.529
		C1255.43,1851.012,1223.415,1834.84,1207.119,1805.483z"/>
	<path d="M1620.105,1496.979l-83.151,181.572v172.461h-55.635v-172.461l-83.179-181.572h60.134l50.56,111.254
		c16.872-37.406,34.292-73.824,51.164-111.254H1620.105z"/>
</g>
<path fill="#FF1E00" d="M1231.635,947.046l0.025,0v32.349c-0.01,71.463-57.942,129.395-129.396,129.396H714.076V979.394h258.792
	l129.396-129.396H714.076V785.3h452.886l129.396-129.396H714.076v-64.698h646.98l129.396-129.396H714.076V332.414
	c0.001-71.454,57.933-129.386,129.396-129.396h32.349l0,0.025c0-53.598-43.449-97.047-97.047-97.047l-323.49-32.374v1293.96h905.772
	l-32.374-323.49C1328.682,990.495,1285.232,947.046,1231.635,947.046"/>
<text transform="matrix(1 0 0 1 278.619 735.7089)" font-family="'Kenzo'" font-size="129.4088">100</text>
<text transform="matrix(1 0 0 1 864.5831 1481.9716)" font-family="'Kenzo'" font-size="129.4088">70</text>
<rect x="439.107" y="80.042" width="6.47" height="1281.147"/>
<rect x="1620.105" y="439.435" width="6.47" height="1480.113"/>
<rect x="319.674" y="1347.844" width="6.47" height="571.704"/>
<rect x="429.402" y="73.572" width="25.882" height="6.47"/>
<rect x="455.284" y="73.572" width="323.522" height="6.47"/>
<rect x="429.402" y="1361.189" width="25.882" height="6.47"/>
<polyline points="332.614,1377.365 332.614,1383.835 1354.674,1383.835 1354.674,1377.365 "/>
<text transform="matrix(1 0 0 1 847.1139 1988.8271)" font-family="'Kenzo'" font-size="129.4088">100</text>
<polyline points="326.143,1884.215 326.143,1890.686 1620.104,1890.686 1620.104,1884.215 "/>
<rect x="455.284" y="1367.66" width="6.47" height="25.882"/>
<rect x="448.813" y="1367.66" width="6.47" height="25.882"/>
<rect x="326.144" y="1367.66" width="6.47" height="25.882"/>
<rect x="1354.675" y="1367.66" width="6.47" height="25.882"/>
<text transform="matrix(1 0 0 1 585.3733 1238.2501)" font-family="'Kenzo'" font-size="129.4088">20</text>
<polyline points="461.754,1108.843 461.754,1115.313 714.101,1115.313 714.101,1108.843 "/>
<rect x="455.284" y="1099.137" width="6.47" height="25.882"/>
<text transform="matrix(1 0 0 1 1214.1941 568.5526)" font-family="'Kenzo'" font-size="64.7044">40</text>
<text transform="matrix(1 0 0 1 1330.4012 528.7863)" font-family="'Kenzo'" font-size="64.7044">45</text>
<polyline points="720.571,471.503 720.571,477.974 1613.223,477.974 1613.223,471.503 "/>
<rect x="714.101" y="461.798" width="6.47" height="25.882"/>
<rect x="1484.084" y="461.798" width="6.47" height="25.882"/>
<polyline points="720.572,575.032 720.572,581.502 1354.675,581.502 1354.675,575.032 "/>
<rect x="714.101" y="565.325" width="6.47" height="25.882"/>
<rect x="1354.675" y="565.325" width="6.47" height="25.882"/>
<text transform="matrix(1 0 0 1 1020.072 762.67)" font-family="'Kenzo'" font-size="64.7044">30</text>
<text transform="matrix(1 0 0 1 1136.2845 722.9081)" font-family="'Kenzo'" font-size="64.7044">35</text>
<polyline points="720.572,665.618 720.572,672.089 1289.966,672.089 1289.966,665.618 "/>
<rect x="714.101" y="655.912" width="6.47" height="25.882"/>
<rect x="1289.966" y="655.912" width="6.47" height="25.882"/>
<polyline points="720.572,769.146 720.572,775.617 1160.558,775.617 1160.558,769.146 "/>
<rect x="714.101" y="759.439" width="6.47" height="25.882"/>
<rect x="1160.558" y="759.439" width="6.47" height="25.882"/>
<text transform="matrix(1 0 0 1 825.9647 956.7765)" font-family="'Kenzo'" font-size="64.7044">20</text>
<text transform="matrix(1 0 0 1 942.181 917.0068)" font-family="'Kenzo'" font-size="64.7044">25</text>
<polyline points="720.572,859.733 720.572,866.203 1095.857,866.203 1095.857,859.733 "/>
<polyline points="720.572,963.26 720.572,969.73 966.448,969.73 966.448,963.26 "/>
<rect x="714.101" y="850.025" width="6.47" height="25.882"/>
<rect x="1095.857" y="850.025" width="6.47" height="25.882"/>
<text transform="matrix(1 0 0 1 904.1652 1175.8302)" font-family="'Kenzo'" font-size="64.7044">25</text>
<polyline points="720.572,1118.551 720.572,1125.021 1095.857,1125.021 1095.857,1118.551 "/>
<rect x="714.101" y="1108.843" width="6.47" height="25.882"/>
<rect x="1095.857" y="1108.843" width="6.47" height="25.882"/>
<rect x="714.101" y="953.552" width="6.47" height="25.882"/>
<rect x="966.448" y="953.552" width="6.47" height="25.882"/>
<polyline points="708.247,1361.189 714.101,1361.189 714.101,1115.313 708.247,1115.313 "/>
<rect x="698.233" y="1361.189" width="25.882" height="6.47"/>
<polyline points="697.925,972.963 704.396,972.963 704.396,856.495 697.925,856.495 "/>
<rect x="688.22" y="972.963" width="25.882" height="6.47"/>
<rect x="688.22" y="850.025" width="25.882" height="6.47"/>
<text transform="matrix(1 0 0 1 667.0204 1071.5487)" font-family="'Kenzo'" font-size="64.7044">10</text>
<text transform="matrix(1 0 0 1 1056.8674 982.662)" font-family="'Kenzo'" font-size="64.7044">10</text>
<text transform="matrix(1 0 0 1 685.7674 841.3061)" font-family="'Kenzo'" font-size="64.7044">5</text>
<text transform="matrix(1 0 0 1 645.4573 939.4493)" font-family="'Kenzo'" font-size="64.7044">10</text>
<text transform="matrix(1 0 0 1 645.4573 744.2479)" font-family="'Kenzo'" font-size="64.7044">10</text>
<text transform="matrix(1 0 0 1 645.4573 552.8378)" font-family="'Kenzo'" font-size="64.7044">10</text>
<polyline points="723.807,1102.372 730.277,1102.372 730.277,985.904 723.807,985.904 "/>
<rect x="714.101" y="1102.372" width="25.882" height="6.47"/>
<rect x="714.101" y="979.434" width="25.882" height="6.47"/>
<text transform="matrix(1 0 0 1 547.3226 1459.7772)" font-family="'Kenzo'" font-size="64.7044">10</text>
<text transform="matrix(1 0 0 1 366.6907 1435.2354)" font-family="'Kenzo'" font-size="64.7044">10</text>
<rect x="1613.223" y="461.798" width="6.47" height="25.882"/>
<rect x="1490.554" y="461.798" width="6.47" height="25.882"/>
<text transform="matrix(1 0 0 1 1531.0984 529.3686)" font-family="'Kenzo'" font-size="64.7044">10</text>
<polyline points="604.104,1490.598 610.574,1490.598 610.574,1374.13 604.104,1374.13 "/>
<rect x="594.398" y="1490.598" width="25.882" height="6.47"/>
<rect x="594.398" y="1367.66" width="25.882" height="6.47"/>
<polyline points="1215.56,972.956 1222.031,972.956 1222.031,953.545 1215.56,953.545 "/>
<rect x="1205.855" y="972.963" width="25.882" height="6.47"/>
<rect x="1205.855" y="947.081" width="25.882" height="6.47"/>
<polyline points="723.807,843.55 730.277,843.55 730.277,791.787 723.807,791.787 "/>
<rect x="714.101" y="843.554" width="25.882" height="6.47"/>
<rect x="714.101" y="785.32" width="25.882" height="6.47"/>
<text transform="matrix(1 0 0 1 685.7674 647.2036)" font-family="'Kenzo'" font-size="64.7044">5</text>
<polyline points="723.807,649.437 730.277,649.437 730.277,597.673 723.807,597.673 "/>
<rect x="714.101" y="649.441" width="25.882" height="6.47"/>
<rect x="714.101" y="591.207" width="25.882" height="6.47"/>
<polyline points="697.925,778.85 704.396,778.85 704.396,662.382 697.925,662.382 "/>
<rect x="688.22" y="778.85" width="25.882" height="6.47"/>
<rect x="688.22" y="655.911" width="25.882" height="6.47"/>
<polyline points="697.925,584.737 704.396,584.737 704.396,468.269 697.925,468.269 "/>
<rect x="688.22" y="584.737" width="25.882" height="6.47"/>
<rect x="688.22" y="461.798" width="25.882" height="6.47"/>
<text transform="matrix(1 0 0 1 671.3319 423.4325)" font-family="'Kenzo'" font-size="64.7044">10</text>
<text transform="matrix(1 0 0 1 839.4364 377.3292)" font-family="'Kenzo'" font-size="64.7044">10</text>
<text transform="matrix(1 0 0 1 781.7538 96.3497)" font-family="'Kenzo'" font-size="64.7044">2.5</text>
<text transform="matrix(1 0 0 1 585.1717 56.3192)" font-family="'Kenzo'" font-size="64.7044">25</text>
<text transform="matrix(1 0 0 1 845.9227 254.7257)" font-family="'Kenzo'" font-size="32.3522">2.5</text>
<text transform="matrix(1 0 0 1 1175.6376 976.2091)" font-family="'Kenzo'" font-size="32.3522">2.5</text>
<text transform="matrix(1 0 0 1 738.4832 219.1602)" font-family="'Kenzo'" font-size="32.3522">7.5</text>
<polyline points="723.807,455.328 730.277,455.328 730.277,338.86 723.807,338.86 "/>
<polyline points="772.335,105.974 778.806,105.974 778.806,73.622 772.335,73.622 "/>
<rect x="714.101" y="455.328" width="25.882" height="6.47"/>
<rect x="714.101" y="332.39" width="25.882" height="6.47"/>
<rect x="714.101" y="325.919" width="129.409" height="6.47"/>
<rect x="849.98" y="212.693" width="19.411" height="6.47"/>
<rect x="837.04" y="202.981" width="6.47" height="129.409"/>
<rect x="843.51" y="202.981" width="6.47" height="25.882"/>
<rect x="869.392" y="202.981" width="6.47" height="25.882"/>
<path d="M429.402,652.661"/>
<circle cx="824.099" cy="312.978" r="6.47"/>
<circle cx="791.746" cy="183.569" r="6.47"/>
<line x1="811.158" y1="190.04" x2="778.806" y2="190.04"/>
<rect x="778.806" y="196.49" width="90.586" height="6.47"/>
<rect x="772.335" y="105.974" width="6.47" height="97.006"/>
<rect x="1102.328" y="979.434" width="129.409" height="6.47"/>
<rect x="1102.328" y="979.434" width="6.47" height="129.409"/>
<circle cx="1121.739" cy="998.845" r="6.47"/>
<path d="M869.392,203.008c0-53.603-36.983-90.586-90.586-90.586v-6.476c53.603,0,97.057,43.454,97.057,97.057"/>
<rect x="1354.723" y="1044.138" width="6.47" height="323.522"/>
<polyline points="1328.791,1050.609 1328.791,1044.138 1361.143,1044.138 1361.143,1050.609 "/>
<circle cx="1251.196" cy="1031.197" r="6.47"/>
<rect x="1231.805" y="953.552" width="6.47" height="90.586"/>
<rect x="1231.785" y="1044.138" width="97.006" height="6.47"/>
<path d="M1231.757,953.552c53.603,0,90.586,36.983,90.586,90.586h6.476c0-53.603-43.454-97.057-97.057-97.057"/>
<text transform="matrix(1 0 0 1 1341.699 1037.6757)" font-family="'Kenzo'" font-size="64.7044">2.5</text>
<text transform="matrix(1 0 0 1 1371.573 1233.4023)" font-family="'Kenzo'" font-size="64.7044">25</text>
<text transform="matrix(1 0 0 1 1211.8806 1080.0116)" font-family="'Kenzo'" font-size="32.3522">7.5</text>
</svg>
