<?xml version="1.0" encoding="utf-8"?>
<!-- Generator: Adobe Illustrator 17.0.0, SVG Export Plug-In . SVG Version: 6.00 Build 0)  -->
<!DOCTYPE svg PUBLIC "-//W3C//DTD SVG 1.1//EN" "http://www.w3.org/Graphics/SVG/1.1/DTD/svg11.dtd">
<svg version="1.1" id="Layer_1" xmlns="http://www.w3.org/2000/svg" xmlns:xlink="http://www.w3.org/1999/xlink" x="0px" y="0px"
	 width="2000px" height="2000px" viewBox="0 0 2000 2000" enable-background="new 0 0 2000 2000" xml:space="preserve">
<g>
	<g>
		<path d="M451.422,1943.035v49.12H279.51v-395.249h62.112v346.129H451.422z"/>
		<path d="M549.858,1646.605v123.076h102.265v49.699H549.858v123.655h137.394v49.12H487.746v-395.249h199.507v49.699H549.858z"/>
		<path d="M713.561,1941.326c-13.17-24.257-13.813-45.73-13.813-47.99v-197.611c0-2.26,0.643-23.733,13.813-47.99
			c18.193-32.774,53.935-50.829,99.753-50.829c45.788,0,81.561,18.055,99.753,50.829c13.17,24.257,13.782,45.73,13.782,47.99v24.836
			h-62.725v-24.836c0-9.041-6.279-49.12-50.811-49.12c-44.563,0-51.454,40.63-51.454,49.12v197.611
			c0,8.49,6.891,49.699,51.454,49.699c44.532,0,50.811-40.658,50.811-49.699v-73.956H823.33v-49.699H926.85v123.655
			c0,2.26-0.613,23.733-13.782,47.99c-18.193,32.774-53.965,50.829-99.753,50.829C767.496,1992.155,731.754,1974.1,713.561,1941.326
			z"/>
		<path d="M1120.048,1868.5h-91.576l-29.494,123.655H935.61l94.118-395.249h89.064l94.118,395.249h-63.368L1120.048,1868.5z
			 M1108.134,1819.38l-33.874-141.737c-11.914,47.99-22.572,93.747-33.874,141.737H1108.134z"/>
		<path d="M1263.047,1941.326c-13.17-24.257-13.813-45.73-13.813-47.99v-197.611c0-2.26,0.643-23.733,13.813-47.99
			c18.193-32.774,53.935-50.829,99.753-50.829c45.788,0,81.561,18.055,99.753,50.829c13.17,24.257,13.782,45.73,13.782,47.99v24.836
			h-62.725v-24.836c0-9.041-6.279-49.12-50.811-49.12c-44.563,0-51.454,40.63-51.454,49.12v197.611
			c0,8.49,6.891,49.699,51.454,49.699c44.532,0,50.811-40.658,50.811-49.699V1868.5h62.725v24.836c0,2.26-0.613,23.733-13.782,47.99
			c-18.193,32.774-53.965,50.829-99.753,50.829C1316.982,1992.155,1281.239,1974.1,1263.047,1941.326z"/>
		<path d="M1724.111,1596.906l-92.832,202.71v192.539h-62.112v-192.539l-92.862-202.71h67.135l56.446,124.206
			c18.836-41.76,38.284-82.418,57.12-124.206H1724.111z"/>
	</g>
	<path fill="#FF1E00" d="M1290.703,982.951l0.028,0v36.115c-0.011,79.783-64.688,144.459-144.46,144.46h-433.38v-144.46h288.92
		l144.46-144.46h-433.38v-72.23h505.61l144.46-144.46h-650.07v-72.23h722.3l144.46-144.46h-866.76v-144.46
		c0.001-79.772,64.677-144.449,144.46-144.46h36.115l0,0.028c0-59.837-48.508-108.345-108.345-108.345L423.97,7.845v1444.601
		h1011.22c0,0-36.143-361.15-36.143-361.15C1399.048,1031.459,1350.54,982.951,1290.703,982.951"/>
</g>
</svg>
